<svg width="196" height="60" viewBox="0 0 196 60" fill="none" xmlns="http://www.w3.org/2000/svg">
<path d="M30.4483 0.831349L19.0944 2.89092C6.4494 5.1847 -1.92783 17.1857 0.38335 29.6958L2.47116 40.9969C4.78233 53.5071 16.9067 61.7891 29.5517 59.4953L40.9056 57.4357C53.5506 55.1419 61.9278 43.141 59.6166 30.6308L57.5288 19.3297C55.2177 6.81958 43.0933 -1.46243 30.4483 0.831349Z" fill="url(#paint0_linear_64_6751)"/>
<path d="M46.8721 44.2657H33.8023C31.8888 44.3 29.9877 43.9563 28.2098 43.2546C26.4319 42.553 24.813 41.5074 23.4476 40.1791C22.0821 38.8508 20.9976 37.2664 20.2572 35.5182C19.5169 33.7701 19.1356 31.8934 19.1356 29.9977C19.1356 28.1019 19.5169 26.2252 20.2572 24.4771C20.9976 22.729 22.0821 21.1445 23.4476 19.8162C24.813 18.4879 26.4319 17.4424 28.2098 16.7407C29.9877 16.0391 31.8888 15.6953 33.8023 15.7296H46.8721V0H33.8023C25.7725 1.67618e-07 18.0716 3.15972 12.3936 8.78407C6.71571 14.4084 3.52588 22.0367 3.52588 29.9907C3.52588 37.9447 6.71571 45.5729 12.3936 51.1973C18.0716 56.8216 25.7725 59.9813 33.8023 59.9813H46.8721V44.2657Z" fill="url(#paint1_linear_64_6751)"/>
<path d="M46.8719 44.2658H33.8021C30.3205 44.264 26.9573 43.0138 24.3341 40.7462C21.711 38.4785 20.0052 35.3469 19.5322 31.9302C19.7535 37.5486 21.3378 43.0315 24.151 47.9151C26.9643 52.7986 30.9236 56.9391 35.6941 59.9861H46.8719V44.2658Z" fill="url(#paint2_radial_64_6751)"/>
<g style="mix-blend-mode:overlay" opacity="0.5">
<path d="M19.5327 31.9254C19.4443 31.2842 19.3987 30.6378 19.3962 29.9907C19.3976 26.3723 20.7865 22.8895 23.282 20.2471C25.7774 17.6046 29.1931 15.9999 32.8378 15.7576C26.8731 16.0237 21.0741 17.7841 15.9832 20.8742C10.8923 23.9643 6.67596 28.2831 3.72852 33.4266C4.5743 40.7404 8.10666 47.4905 13.6527 52.391C19.1987 57.2914 26.3707 59.9997 33.8026 60H35.6851C30.9139 56.9501 26.9548 52.8062 24.1431 47.9193C21.3314 43.0323 19.75 37.5462 19.5327 31.9254Z" fill="white"/>
</g>
<g style="mix-blend-mode:overlay" opacity="0.5">
<path d="M46.8723 2.00071e-05H33.8025C28.8974 -0.0056062 24.0651 1.17546 19.7256 3.44058C24.8652 3.46685 29.9405 4.57576 34.6143 6.69372C39.2882 8.81167 43.4538 11.8902 46.8346 15.725H46.8723V2.00071e-05Z" fill="white"/>
</g>
<path d="M19.5326 31.9253C19.4442 31.2841 19.3986 30.6378 19.3961 29.9906C19.3947 27.4027 20.1075 24.8636 21.4575 22.6479C17.5949 27.2692 15.2692 32.9605 14.7991 38.942C14.3289 44.9235 15.7373 50.9028 18.8313 56.0605C23.3905 58.6399 28.5521 59.9917 33.8025 59.9813H35.685C30.9163 56.9332 26.9588 52.7922 24.1472 47.9088C21.3357 43.0253 19.7529 37.5429 19.5326 31.9253Z" fill="url(#paint3_radial_64_6751)"/>
<path d="M32.3339 29.9907C32.3339 26.2096 33.8493 22.5832 36.5471 19.9083C39.2448 17.2333 42.9043 15.7287 46.7214 15.725H33.7976C31.8841 15.6907 29.983 16.0345 28.2051 16.7361C26.4272 17.4378 24.8083 18.4833 23.4429 19.8116C22.0774 21.1399 20.9929 22.7244 20.2525 24.4725C19.5122 26.2206 19.1309 28.0973 19.1309 29.9931C19.1309 31.8888 19.5122 33.7655 20.2525 35.5136C20.9929 37.2617 22.0774 38.8462 23.4429 40.1745C24.8083 41.5028 26.4272 42.5483 28.2051 43.25C29.983 43.9517 31.8841 44.2954 33.7976 44.2611H46.7214C42.9039 44.2562 39.2444 42.7505 36.5468 40.0748C33.8491 37.3991 32.3339 33.7722 32.3339 29.9907Z" fill="url(#paint4_radial_64_6751)"/>
<path d="M47.52 40.44C45.52 40.44 43.7067 40 42.08 39.12C40.48 38.2133 39.2133 36.9867 38.28 35.44C37.3467 33.8933 36.88 32.16 36.88 30.24C36.88 28.32 37.3467 26.6 38.28 25.08C39.2133 23.56 40.48 22.36 42.08 21.48C43.68 20.5733 45.4933 20.12 47.52 20.12C49.5467 20.12 51.36 20.56 52.96 21.44C54.56 22.32 55.8267 23.5333 56.76 25.08C57.6933 26.6 58.16 28.32 58.16 30.24C58.16 32.16 57.6933 33.8933 56.76 35.44C55.8267 36.9867 54.56 38.2133 52.96 39.12C51.36 40 49.5467 40.44 47.52 40.44ZM47.52 34.88C48.4 34.88 49.1733 34.6933 49.84 34.32C50.5067 33.92 51.0133 33.3733 51.36 32.68C51.7333 31.96 51.92 31.1467 51.92 30.24C51.92 29.3333 51.7333 28.5467 51.36 27.88C50.9867 27.1867 50.4667 26.6533 49.8 26.28C49.16 25.88 48.4 25.68 47.52 25.68C46.6667 25.68 45.9067 25.88 45.24 26.28C44.5733 26.6533 44.0533 27.1867 43.68 27.88C43.3067 28.5733 43.12 29.3733 43.12 30.28C43.12 31.16 43.3067 31.96 43.68 32.68C44.0533 33.3733 44.5733 33.92 45.24 34.32C45.9067 34.6933 46.6667 34.88 47.52 34.88ZM61.2069 40V20.56H67.3269V40H61.2069ZM73.6469 40V28.64C73.6469 27.6533 73.3402 26.8933 72.7269 26.36C72.1402 25.8 71.4069 25.52 70.5269 25.52C69.9135 25.52 69.3669 25.6533 68.8869 25.92C68.4069 26.16 68.0202 26.5067 67.7269 26.96C67.4602 27.4133 67.3269 27.9733 67.3269 28.64L64.9669 27.6C64.9669 26.0533 65.3002 24.7333 65.9669 23.64C66.6335 22.52 67.5402 21.6667 68.6869 21.08C69.8335 20.4667 71.1269 20.16 72.5669 20.16C73.9269 20.16 75.1402 20.4667 76.2069 21.08C77.3002 21.6933 78.1669 22.5467 78.8069 23.64C79.4469 24.7333 79.7669 26.04 79.7669 27.56V40H73.6469ZM86.0869 40V28.64C86.0869 27.6533 85.7802 26.8933 85.1669 26.36C84.5802 25.8 83.8469 25.52 82.9669 25.52C82.3535 25.52 81.8069 25.6533 81.3269 25.92C80.8469 26.16 80.4602 26.5067 80.1669 26.96C79.9002 27.4133 79.7669 27.9733 79.7669 28.64L76.2469 28.16C76.3002 26.5067 76.6869 25.0933 77.4069 23.92C78.1535 22.72 79.1269 21.8 80.3269 21.16C81.5535 20.4933 82.9269 20.16 84.4469 20.16C85.9402 20.16 87.2602 20.48 88.4069 21.12C89.5802 21.7333 90.5002 22.6267 91.1669 23.8C91.8602 24.9467 92.2069 26.3333 92.2069 27.96V40H86.0869ZM96.1288 40V20.56H102.249V40H96.1288ZM108.569 40V28.64C108.569 27.6533 108.262 26.8933 107.649 26.36C107.062 25.8 106.329 25.52 105.449 25.52C104.835 25.52 104.289 25.6533 103.809 25.92C103.329 26.16 102.942 26.5067 102.649 26.96C102.382 27.4133 102.249 27.9733 102.249 28.64L99.8888 27.6C99.8888 26.0533 100.222 24.7333 100.889 23.64C101.555 22.52 102.462 21.6667 103.609 21.08C104.755 20.4667 106.049 20.16 107.489 20.16C108.849 20.16 110.062 20.4667 111.129 21.08C112.222 21.6933 113.089 22.5467 113.729 23.64C114.369 24.7333 114.689 26.04 114.689 27.56V40H108.569ZM121.009 40V28.64C121.009 27.6533 120.702 26.8933 120.089 26.36C119.502 25.8 118.769 25.52 117.889 25.52C117.275 25.52 116.729 25.6533 116.249 25.92C115.769 26.16 115.382 26.5067 115.089 26.96C114.822 27.4133 114.689 27.9733 114.689 28.64L111.169 28.16C111.222 26.5067 111.609 25.0933 112.329 23.92C113.075 22.72 114.049 21.8 115.249 21.16C116.475 20.4933 117.849 20.16 119.369 20.16C120.862 20.16 122.182 20.48 123.329 21.12C124.502 21.7333 125.422 22.6267 126.089 23.8C126.782 24.9467 127.129 26.3333 127.129 27.96V40H121.009ZM139.691 40.44C137.904 40.44 136.317 40.08 134.931 39.36C133.571 38.6133 132.504 37.6 131.731 36.32C130.957 35.0133 130.571 33.52 130.571 31.84V20.56H136.691V31.76C136.691 32.4267 136.797 33 137.011 33.48C137.251 33.96 137.597 34.3333 138.051 34.6C138.504 34.8667 139.051 35 139.691 35C140.597 35 141.317 34.72 141.851 34.16C142.384 33.5733 142.651 32.7733 142.651 31.76V20.56H148.771V31.8C148.771 33.5067 148.384 35.0133 147.611 36.32C146.837 37.6 145.771 38.6133 144.411 39.36C143.051 40.08 141.477 40.44 139.691 40.44ZM165.453 40V28.92C165.453 27.9067 165.133 27.0933 164.493 26.48C163.88 25.84 163.093 25.52 162.133 25.52C161.466 25.52 160.88 25.6667 160.373 25.96C159.866 26.2267 159.466 26.6267 159.173 27.16C158.88 27.6667 158.733 28.2533 158.733 28.92L156.373 27.76C156.373 26.24 156.706 24.9067 157.373 23.76C158.04 22.6133 158.96 21.7333 160.133 21.12C161.333 20.48 162.68 20.16 164.173 20.16C165.613 20.16 166.88 20.5067 167.973 21.2C169.093 21.8667 169.973 22.76 170.613 23.88C171.253 25 171.573 26.2267 171.573 27.56V40H165.453ZM152.613 40V20.56H158.733V40H152.613ZM185.104 40.44C182.997 40.44 181.117 40.0133 179.464 39.16C177.837 38.28 176.557 37.0667 175.624 35.52C174.69 33.9733 174.224 32.2267 174.224 30.28C174.224 28.3333 174.677 26.6 175.584 25.08C176.517 23.5333 177.77 22.32 179.344 21.44C180.917 20.56 182.69 20.12 184.664 20.12C186.584 20.12 188.277 20.5333 189.744 21.36C191.21 22.1867 192.357 23.3333 193.184 24.8C194.037 26.2667 194.464 27.9467 194.464 29.84C194.464 30.1867 194.437 30.56 194.384 30.96C194.357 31.3333 194.29 31.7733 194.184 32.28L177.424 32.32V28.12L191.584 28.08L188.944 29.84C188.917 28.72 188.744 27.8 188.424 27.08C188.104 26.3333 187.624 25.7733 186.984 25.4C186.37 25 185.61 24.8 184.704 24.8C183.744 24.8 182.904 25.0267 182.184 25.48C181.49 25.9067 180.944 26.52 180.544 27.32C180.17 28.12 179.984 29.0933 179.984 30.24C179.984 31.3867 180.184 32.3733 180.584 33.2C181.01 34 181.597 34.6267 182.344 35.08C183.117 35.5067 184.024 35.72 185.064 35.72C186.024 35.72 186.89 35.56 187.664 35.24C188.437 34.8933 189.117 34.3867 189.704 33.72L193.064 37.08C192.104 38.2 190.944 39.04 189.584 39.6C188.224 40.16 186.73 40.44 185.104 40.44Z" fill="url(#paint5_linear_64_6751)"/>
<defs>
<linearGradient id="paint0_linear_64_6751" x1="41.6057" y1="11.8086" x2="16.6194" y2="64.7745" gradientUnits="userSpaceOnUse">
<stop stop-color="#460022"/>
<stop offset="1" stop-opacity="0"/>
</linearGradient>
<linearGradient id="paint1_linear_64_6751" x1="3.52588" y1="29.9907" x2="46.8721" y2="29.9907" gradientUnits="userSpaceOnUse">
<stop stop-color="#E7AB2B"/>
<stop offset="0.16" stop-color="#DC7B3E"/>
<stop offset="0.33" stop-color="#D3524F"/>
<stop offset="0.48" stop-color="#CD345B"/>
<stop offset="0.61" stop-color="#C82262"/>
<stop offset="0.7" stop-color="#C71B65"/>
</linearGradient>
<radialGradient id="paint2_radial_64_6751" cx="0" cy="0" r="1" gradientUnits="userSpaceOnUse" gradientTransform="translate(25.227 38.9232) scale(25.2311 24.993)">
<stop offset="0.17" stop-color="#4674B3"/>
<stop offset="0.31" stop-color="#497AB3"/>
<stop offset="0.49" stop-color="#528BB4"/>
<stop offset="0.7" stop-color="#61A6B5"/>
<stop offset="0.93" stop-color="#75CCB6"/>
<stop offset="1" stop-color="#7DDAB7"/>
</radialGradient>
<radialGradient id="paint3_radial_64_6751" cx="0" cy="0" r="1" gradientUnits="userSpaceOnUse" gradientTransform="translate(14.9862 32.5454) scale(26.5631 26.3124)">
<stop offset="0.17" stop-color="#4674B3"/>
<stop offset="0.37" stop-color="#4877B3"/>
<stop offset="0.53" stop-color="#4D81B4"/>
<stop offset="0.67" stop-color="#5692B4"/>
<stop offset="0.81" stop-color="#63A9B5"/>
<stop offset="0.93" stop-color="#73C8B6"/>
<stop offset="1" stop-color="#7DDAB7"/>
</radialGradient>
<radialGradient id="paint4_radial_64_6751" cx="0" cy="0" r="1" gradientUnits="userSpaceOnUse" gradientTransform="translate(35.9343 11.6364) scale(39.2751 38.9044)">
<stop stop-color="#DA0568"/>
<stop offset="0.39" stop-color="#6E0351"/>
<stop offset="1" stop-color="#3A0046"/>
</radialGradient>
<linearGradient id="paint5_linear_64_6751" x1="166.897" y1="26.8367" x2="20.7446" y2="26.8367" gradientUnits="userSpaceOnUse">
<stop stop-color="white"/>
<stop offset="1" stop-color="#E08366"/>
</linearGradient>
</defs>
</svg>
